<svg xmlns="http://www.w3.org/2000/svg" width="70" height="70" viewBox="0 0 70 70">
    <defs>
        <style>
            .cls-1{fill:#33d69f;opacity:.5}.cls-2{fill:#fff}.cls-3{filter:url(#Ret창ngulo_93)}
        </style>
        <filter id="Ret창ngulo_93" width="70" height="70" x="0" y="0" filterUnits="userSpaceOnUse">
            <feOffset/>
            <feGaussianBlur result="blur" stdDeviation="5"/>
            <feFlood flood-opacity=".09"/>
            <feComposite in2="blur" operator="in"/>
            <feComposite in="SourceGraphic"/>
        </filter>
    </defs>
    <g id="Grupo_44" data-name="Grupo 44" transform="translate(13.851 15)">
        <g class="cls-3" transform="translate(-13.85 -15)">
            <rect id="Ret창ngulo_93-2" width="40" height="40" class="cls-1" data-name="Ret창ngulo 93" rx="8" transform="translate(15 15)"/>
        </g>
        <path id="Icon_awesome-building" d="M16.882 18.586h-.774V.929a.929.929 0 0 0-.93-.929H2.168a.929.929 0 0 0-.929.929v17.657H.465A.465.465 0 0 0 0 19.05v.774h17.347v-.774a.465.465 0 0 0-.465-.464zM4.956 2.943a.465.465 0 0 1 .465-.465H6.97a.465.465 0 0 1 .465.465v1.549a.465.465 0 0 1-.465.465H5.421a.465.465 0 0 1-.465-.465zm0 3.717a.465.465 0 0 1 .465-.46H6.97a.465.465 0 0 1 .465.465v1.544a.465.465 0 0 1-.465.465H5.421a.465.465 0 0 1-.465-.465zm2.014 5.731H5.421a.465.465 0 0 1-.465-.465v-1.549a.465.465 0 0 1 .465-.465H6.97a.465.465 0 0 1 .465.465v1.549a.465.465 0 0 1-.465.465zm2.943 6.2H7.434v-3.258a.465.465 0 0 1 .465-.465h1.549a.465.465 0 0 1 .465.465zm2.478-6.66a.465.465 0 0 1-.465.465h-1.549a.465.465 0 0 1-.465-.465v-1.554a.465.465 0 0 1 .465-.465h1.549a.465.465 0 0 1 .465.465zm0-3.717a.465.465 0 0 1-.465.465h-1.549a.465.465 0 0 1-.465-.465V6.66a.465.465 0 0 1 .465-.465h1.549a.465.465 0 0 1 .465.465zm0-3.717a.465.465 0 0 1-.465.465h-1.549a.465.465 0 0 1-.465-.465V2.943a.465.465 0 0 1 .465-.465h1.549a.465.465 0 0 1 .465.465z" class="cls-2" data-name="Icon awesome-building" transform="translate(12.149 10)"/>
    </g>
</svg>
