<svg xmlns="http://www.w3.org/2000/svg" width="70" height="70" viewBox="0 0 70 70">
    <defs>
        <style>
            .cls-1{fill:#33d69f;opacity:.5}.cls-2{fill:#fff}.cls-3{filter:url(#Retângulo_91)}
        </style>
        <filter id="Retângulo_91" width="70" height="70" x="0" y="0" filterUnits="userSpaceOnUse">
            <feOffset/>
            <feGaussianBlur result="blur" stdDeviation="5"/>
            <feFlood flood-opacity=".09"/>
            <feComposite in2="blur" operator="in"/>
            <feComposite in="SourceGraphic"/>
        </filter>
    </defs>
    <g id="Componente_2_11" data-name="Componente 2 – 11" transform="translate(15 15)">
        <g class="cls-3" transform="translate(-15 -15)">
            <rect id="Retângulo_91-2" width="40" height="40" class="cls-1" data-name="Retângulo 91" rx="8" transform="translate(15 15)"/>
        </g>
        <path id="Icon_awesome-chalkboard-teacher" d="M7.124 12.607a.752.752 0 0 0-.242.039 4.34 4.34 0 0 1-1.4.247 4.344 4.344 0 0 1-1.4-.247.75.75 0 0 0-.241-.039A3.928 3.928 0 0 0 0 16.64a1.677 1.677 0 0 0 1.644 1.7h7.672a1.677 1.677 0 0 0 1.644-1.7 3.928 3.928 0 0 0-3.836-4.033zM5.48 11.46a3.366 3.366 0 0 0 3.288-3.438A3.366 3.366 0 0 0 5.48 4.584a3.366 3.366 0 0 0-3.288 3.438A3.366 3.366 0 0 0 5.48 11.46zM20.277 0H7.124A1.716 1.716 0 0 0 5.48 1.776v1.662a4.193 4.193 0 0 1 2.192.637V2.292h12.057v10.315h-2.192v-2.293h-4.384v2.292h-2.612A4.6 4.6 0 0 1 11.9 14.9h8.376a1.716 1.716 0 0 0 1.644-1.776V1.776A1.716 1.716 0 0 0 20.277 0z" class="cls-2" data-name="Icon awesome-chalkboard-teacher" transform="translate(9 11)"/>
    </g>
</svg>
