<svg xmlns="http://www.w3.org/2000/svg" width="93" height="29" viewBox="0 0 93 29">
    <defs>
        <style>
            .cls-1{font-size:11px;font-family:Montserrat-SemiBold,Montserrat;font-weight:600}.cls-2{fill:url(#linear-gradient)}
        </style>
        <linearGradient id="linear-gradient" x2="1" y1=".5" y2=".806" gradientUnits="objectBoundingBox">
            <stop offset="0" stop-color="#33d69f"/>
            <stop offset="1" stop-color="#a113ff"/>
        </linearGradient>
    </defs>
    <g id="Grupo_37" data-name="Grupo 37" transform="translate(-62 173)">
        <text id="Prometheus" class="cls-1" transform="translate(86 -155.061)">
            <tspan x="0" y="0">Prometheus</tspan>
        </text>
        <path id="Icon_simple-firebase" d="M5.689 18.939L8.636.557A.665.665 0 0 1 9.19.01a.682.682 0 0 1 .71.34l3.168 5.765zM26.615 23.4L23.809 6.483a.663.663 0 0 0-.46-.516.692.692 0 0 0-.684.159L4.972 23.4l9.789 5.351a2.073 2.073 0 0 0 1.977 0l9.877-5.351zM18.659 8.638L16.392 4.43a.685.685 0 0 0-1.2 0L5.24 21.731z" class="cls-2" data-name="Icon simple-firebase" transform="translate(57.027 -173)"/>
    </g>
</svg>
