<svg xmlns="http://www.w3.org/2000/svg" xmlns:xlink="http://www.w3.org/1999/xlink" width="152" height="35.999" viewBox="0 0 152 35.999">
  <defs>
    <style>
      .cls-1 {
        font-size: 20px;
        font-family: Montserrat-Regular, Montserrat;
      }

      .cls-2 {
        fill: url(#linear-gradient);
      }
    </style>
    <linearGradient id="linear-gradient" x1="0.167" y1="0.261" x2="0.5" y2="0.5" gradientUnits="objectBoundingBox">
      <stop offset="0" stop-color="#671aff"/>
      <stop offset="1" stop-color="#a113ff"/>
    </linearGradient>
  </defs>
  <g id="Grupo_1" data-name="Grupo 1" transform="translate(-62 173)">
    <path id="Icon_simple-firebase" data-name="Icon simple-firebase" class="cls-2" d="M5.835,23.51,9.382.692A.813.813,0,0,1,10.9.434L14.719,7.59Zm25.193,5.537-3.378-21A.815.815,0,0,0,26.272,7.6L4.972,29.046l11.785,6.642a2.43,2.43,0,0,0,2.381,0l11.889-6.642ZM21.45,10.722,18.72,5.5a.813.813,0,0,0-1.44,0L5.3,26.976Z" transform="translate(57.027 -173)"/>
  </g>
</svg>
