<svg xmlns="http://www.w3.org/2000/svg" width="70" height="70" viewBox="0 0 70 70">
    <defs>
        <style>
            .cls-1{fill:#33d69f;opacity:.5}.cls-2{fill:#fff}.cls-3{filter:url(#Ret창ngulo_92)}
        </style>
        <filter id="Ret창ngulo_92" width="70" height="70" x="0" y="0" filterUnits="userSpaceOnUse">
            <feOffset/>
            <feGaussianBlur result="blur" stdDeviation="5"/>
            <feFlood flood-opacity=".09"/>
            <feComposite in2="blur" operator="in"/>
            <feComposite in="SourceGraphic"/>
        </filter>
    </defs>
    <g id="Grupo_43" data-name="Grupo 43" transform="translate(14.234 15)">
        <g class="cls-3" transform="translate(-14.23 -15)">
            <rect id="Ret창ngulo_92-2" width="40" height="40" class="cls-1" data-name="Ret창ngulo 92" rx="8" transform="translate(15 15)"/>
        </g>
        <path id="Icon_awesome-school" d="M0 8.924v10.837a.637.637 0 0 0 .637.637h3.188V7.65h-2.55A1.275 1.275 0 0 0 0 8.924zm14.343-1.912h-.956V5.418a.319.319 0 0 0-.319-.319h-.638a.319.319 0 0 0-.319.319v2.55a.319.319 0 0 0 .319.319h1.912a.319.319 0 0 0 .319-.319v-.637a.319.319 0 0 0-.318-.319zm5.488-2.548L13.456.214a1.276 1.276 0 0 0-1.414 0l-6.375 4.25a1.275 1.275 0 0 0-.567 1.06V20.4h5.1v-5.738a.637.637 0 0 1 .637-.637h3.825a.637.637 0 0 1 .637.637V20.4h5.1V5.525a1.275 1.275 0 0 0-.568-1.061zM12.749 10.2a3.187 3.187 0 1 1 3.187-3.187 3.187 3.187 0 0 1-3.187 3.187zm11.474-2.55h-2.55V20.4h3.187a.637.637 0 0 0 .637-.637V8.924a1.275 1.275 0 0 0-1.274-1.274z" class="cls-2" data-name="Icon awesome-school" transform="translate(7.766 10)"/>
    </g>
</svg>
